<svg width="32" height="32" viewBox="0 0 32 32" fill="none" xmlns="http://www.w3.org/2000/svg">
<path opacity="0.5" d="M26.9841 11.8585C28.0726 14.8491 27.9285 18.1497 26.5834 21.0341C25.2384 23.9185 22.8027 26.1505 19.812 27.239L17.4179 20.6612C18.664 20.2076 19.6789 19.2776 20.2393 18.0758C20.7997 16.874 20.8598 15.4987 20.4062 14.2526C19.9527 13.0065 19.0227 11.9916 17.8208 11.4312C16.619 10.8707 15.2438 10.8107 13.9977 11.2642L11.6035 4.6864C14.5942 3.59789 17.8948 3.742 20.7792 5.08702C23.6636 6.43204 25.8956 8.86781 26.9841 11.8585Z" fill="#9E9BAD"/>
<path d="M11.2615 3.7467C11.0123 3.83741 10.8093 4.02341 10.6972 4.26378C10.5852 4.50415 10.5732 4.77919 10.6639 5.02842L13.058 11.6063C13.1487 11.8555 13.3347 12.0585 13.5751 12.1706C13.8154 12.2826 14.0905 12.2946 14.3397 12.2039C15.1672 11.903 16.0708 11.8834 16.9105 12.1484C17.7502 12.4133 18.479 12.9479 18.9839 13.6693C19.4889 14.3906 19.7417 15.2584 19.7031 16.1381C19.6646 17.0177 19.3369 17.8601 18.7708 18.5345C18.2048 19.2089 17.432 19.6778 16.5724 19.8683C15.7127 20.0588 14.8143 19.9603 14.0163 19.5882C13.2183 19.216 12.5654 18.5909 12.1589 17.8099C11.7523 17.0289 11.6148 16.1355 11.7677 15.2684C11.7905 15.1391 11.7877 15.0065 11.7592 14.8782C11.7308 14.75 11.6774 14.6286 11.602 14.521C11.5267 14.4134 11.4308 14.3217 11.3201 14.2512C11.2093 14.1806 11.0856 14.1326 10.9563 14.1098L4.06232 12.8944C3.93296 12.8716 3.80037 12.8745 3.67213 12.9029C3.54389 12.9313 3.42251 12.9848 3.31492 13.0601C3.20733 13.1355 3.11564 13.2313 3.04508 13.3421C2.97453 13.4529 2.9265 13.5765 2.90373 13.7059C2.4068 16.5241 2.85366 19.4275 4.17499 21.9658C5.49632 24.5042 7.61829 26.5356 10.2118 27.7451C12.8053 28.9546 15.7255 29.2745 18.5193 28.6553C21.3132 28.036 23.8247 26.5122 25.6643 24.3202C27.5039 22.1281 28.5688 19.3903 28.6938 16.5314C28.8189 13.6724 27.9971 10.8521 26.3559 8.50781C24.7148 6.16351 22.3459 4.42623 19.6168 3.5654C16.8877 2.70457 13.9508 2.7683 11.2615 3.7467ZM4.74387 15.0447L9.70635 15.9203C9.70205 16.6345 9.82507 17.3438 10.0696 18.0148C10.1351 18.1945 10.2073 18.3638 10.2887 18.5363L6.16282 21.4321C5.05408 19.4958 4.55929 17.2684 4.74387 15.0447ZM7.30792 23.0652L11.4426 20.1716C12.1295 20.867 12.9755 21.3846 13.9075 21.6793C14.8395 21.974 15.8293 22.0371 16.7912 21.863L18.5145 26.5979C16.5035 27.1256 14.3843 27.074 12.4014 26.4489C10.4185 25.8238 8.65273 24.6508 7.30792 23.0652ZM20.3939 25.9138L18.6705 21.179C19.9028 20.4784 20.8472 19.3642 21.3364 18.0338C21.8256 16.7035 21.828 15.2429 21.3432 13.9109C20.8584 12.5789 19.9177 11.4616 18.6878 10.757C17.4579 10.0523 16.0183 9.80584 14.624 10.0612L12.9007 5.32635C15.554 4.62632 18.3732 4.9433 20.8048 6.21507C23.2364 7.48684 25.1049 9.62155 26.0434 12.2002C26.982 14.7788 26.9228 17.6151 25.8775 20.1524C24.8323 22.6896 22.8764 24.7446 20.3939 25.9138Z" fill="#252836"/>
</svg>
