<svg width="27" height="27" viewBox="0 0 27 27" fill="none" xmlns="http://www.w3.org/2000/svg">
<path opacity="0.2" d="M18.0701 2.62132L24.0554 19.0659C24.131 19.2736 24.121 19.5028 24.0276 19.7031C23.9342 19.9034 23.7651 20.0584 23.5574 20.134L9.462 25.2643C9.25431 25.3399 9.02511 25.3299 8.8248 25.2365C8.62449 25.1431 8.4695 24.974 8.3939 24.7663L2.40855 8.32165C2.33296 8.11397 2.34297 7.88476 2.43637 7.68445C2.52978 7.48415 2.69893 7.32915 2.90661 7.25356L6.822 5.82847C6.55908 6.69105 6.58435 7.61579 6.89397 8.46272L7.17899 9.2458L15.0098 6.39563L14.7247 5.61255C14.4175 4.76475 13.8425 4.04011 13.0866 3.54834L17.002 2.12326C17.2097 2.04766 17.4389 2.05767 17.6392 2.15108C17.8395 2.24448 17.9945 2.41363 18.0701 2.62132Z" fill="#CECBDE"/>
<path d="M17.8598 14.2265C17.9354 14.4341 17.9254 14.6633 17.832 14.8637C17.7386 15.064 17.5694 15.219 17.3618 15.2945L11.0971 17.5747C10.8895 17.6503 10.6602 17.6403 10.4599 17.5469C10.2596 17.4535 10.1046 17.2843 10.029 17.0766C9.95346 16.8689 9.96346 16.6397 10.0569 16.4394C10.1503 16.2391 10.3194 16.0841 10.5271 16.0085L16.7917 13.7284C16.9994 13.6528 17.2286 13.6628 17.4289 13.7562C17.6292 13.8496 17.7842 14.0188 17.8598 14.2265ZM15.6517 10.5961L9.38704 12.8762C9.17936 12.9518 9.01021 13.1068 8.9168 13.3071C8.8234 13.5074 8.81339 13.7366 8.88898 13.9443C8.96457 14.152 9.11957 14.3211 9.31988 14.4145C9.52018 14.508 9.74939 14.518 9.95707 14.4424L16.2217 12.1622C16.4294 12.0866 16.5985 11.9316 16.6919 11.7313C16.7853 11.531 16.7953 11.3018 16.7198 11.0941C16.6442 10.8865 16.4892 10.7173 16.2889 10.6239C16.0886 10.5305 15.8593 10.5205 15.6517 10.5961ZM18.8531 2.33635L24.8384 18.781C24.9896 19.1963 24.9696 19.6548 24.7828 20.0554C24.596 20.456 24.2577 20.766 23.8423 20.9172L9.74691 26.0475C9.33154 26.1986 8.87312 26.1786 8.47251 25.9918C8.0719 25.805 7.7619 25.4667 7.61072 25.0513L1.62537 8.60672C1.47418 8.19135 1.4942 7.73293 1.68101 7.33232C1.86782 6.93171 2.20612 6.62171 2.62149 6.47053L6.17078 5.17869C6.43148 4.52591 6.8271 3.93556 7.33174 3.44626C7.83639 2.95697 8.43868 2.57977 9.0992 2.33936C9.75971 2.09896 10.4636 2.00076 11.1646 2.0512C11.8657 2.10164 12.5483 2.29958 13.1676 2.63206L16.7169 1.34023C17.1322 1.18904 17.5907 1.20906 17.9913 1.39587C18.3919 1.58268 18.7019 1.92098 18.8531 2.33635ZM7.67694 8.17775L13.9416 5.89762C13.6392 5.06688 13.0192 4.39028 12.218 4.01666C11.4167 3.64304 10.4999 3.60301 9.66918 3.90538C8.83844 4.20774 8.16184 4.82773 7.78822 5.62896C7.41461 6.43018 7.37458 7.34701 7.67694 8.17775ZM17.2869 2.90638L14.6685 3.85941C15.0297 4.29752 15.3135 4.79403 15.5077 5.32759L15.7927 6.11066C15.8683 6.31835 15.8583 6.54755 15.7649 6.74786C15.6715 6.94817 15.5024 7.10317 15.2947 7.17876L7.4639 10.0289C7.25621 10.1045 7.027 10.0945 6.8267 10.0011C6.62639 9.9077 6.47139 9.73855 6.3958 9.53086L6.11079 8.74779C5.9166 8.21422 5.81486 7.65144 5.80994 7.08366L3.19152 8.03668L9.17687 24.4813L23.2723 19.351L17.2869 2.90638Z" fill="#706D7E"/>
</svg>
