<svg width="20" height="20" viewBox="0 0 20 20" fill="none" xmlns="http://www.w3.org/2000/svg">
<path d="M10 2.5H8.125C7.79348 2.5 7.47554 2.6317 7.24112 2.86612C7.0067 3.10054 6.875 3.41848 6.875 3.75V16.25C6.875 16.5815 7.0067 16.8995 7.24112 17.1339C7.47554 17.3683 7.79348 17.5 8.125 17.5H10C10.3315 17.5 10.6495 17.3683 10.8839 17.1339C11.1183 16.8995 11.25 16.5815 11.25 16.25V3.75C11.25 3.41848 11.1183 3.10054 10.8839 2.86612C10.6495 2.6317 10.3315 2.5 10 2.5ZM10 16.25H8.125V3.75H10V16.25ZM15.625 2.5H13.75C13.4185 2.5 13.1005 2.6317 12.8661 2.86612C12.6317 3.10054 12.5 3.41848 12.5 3.75V16.25C12.5 16.5815 12.6317 16.8995 12.8661 17.1339C13.1005 17.3683 13.4185 17.5 13.75 17.5H15.625C15.9565 17.5 16.2745 17.3683 16.5089 17.1339C16.7433 16.8995 16.875 16.5815 16.875 16.25V3.75C16.875 3.41848 16.7433 3.10054 16.5089 2.86612C16.2745 2.6317 15.9565 2.5 15.625 2.5ZM15.625 16.25H13.75V3.75H15.625V16.25ZM5.625 10C5.625 10.1658 5.55915 10.3247 5.44194 10.4419C5.32473 10.5592 5.16576 10.625 5 10.625H3.75V11.875C3.75 12.0408 3.68415 12.1997 3.56694 12.3169C3.44973 12.4342 3.29076 12.5 3.125 12.5C2.95924 12.5 2.80027 12.4342 2.68306 12.3169C2.56585 12.1997 2.5 12.0408 2.5 11.875V10.625H1.25C1.08424 10.625 0.925268 10.5592 0.808058 10.4419C0.690848 10.3247 0.625 10.1658 0.625 10C0.625 9.83424 0.690848 9.67527 0.808058 9.55806C0.925268 9.44085 1.08424 9.375 1.25 9.375H2.5V8.125C2.5 7.95924 2.56585 7.80027 2.68306 7.68306C2.80027 7.56585 2.95924 7.5 3.125 7.5C3.29076 7.5 3.44973 7.56585 3.56694 7.68306C3.68415 7.80027 3.75 7.95924 3.75 8.125V9.375H5C5.16576 9.375 5.32473 9.44085 5.44194 9.55806C5.55915 9.67527 5.625 9.83424 5.625 10Z" fill="#CECBDE"/>
</svg>
