<svg width="27" height="27" viewBox="0 0 27 27" fill="none" xmlns="http://www.w3.org/2000/svg">
<path opacity="0.2" d="M20.7349 9.98527L21.6293 7.33187C21.1046 6.57972 20.4821 5.90079 19.7782 5.31302L17.0578 5.97061C16.7634 5.81137 16.4598 5.6698 16.1486 5.54663L14.9033 3.03902C14.0007 2.88049 13.0811 2.84245 12.1684 2.92591L10.7103 5.3156C10.3893 5.41139 10.0742 5.52607 9.76673 5.65905L7.11333 4.76471C6.36411 5.28903 5.68786 5.91055 5.1023 6.61294L5.75989 9.33334C5.60066 9.62774 5.45908 9.93135 5.33592 10.2426L2.8283 11.4878C2.66977 12.3904 2.63174 13.3101 2.71519 14.2227L5.10489 15.6808C5.20067 16.0018 5.31535 16.3169 5.44833 16.6244L4.554 19.2778C5.07865 20.03 5.70115 20.7089 6.40508 21.2967L9.12548 20.6391C9.41987 20.7983 9.72348 20.9399 10.0347 21.063L11.2799 23.5707C12.1826 23.7292 13.1022 23.7672 14.0148 23.6838L15.4729 21.2941C15.794 21.1983 16.109 21.0836 16.4165 20.9506L19.0699 21.845C19.8221 21.3203 20.501 20.6978 21.0888 19.9939L20.4312 17.2735C20.5904 16.9791 20.732 16.6755 20.8552 16.3643L23.3628 15.119C23.5213 14.2164 23.5594 13.2968 23.4759 12.3841L21.0862 10.926C20.9878 10.6058 20.8705 10.2917 20.7349 9.98527ZM14.5147 17.2176C13.7403 17.4995 12.8997 17.5454 12.0992 17.3495C11.2988 17.1536 10.5743 16.7248 10.0176 16.1172C9.46085 15.5096 9.09677 14.7506 8.97141 13.9361C8.84605 13.1216 8.96503 12.2882 9.3133 11.5413C9.66158 10.7945 10.2235 10.1676 10.928 9.74012C11.6326 9.31261 12.448 9.10361 13.2713 9.13955C14.0946 9.1755 14.8888 9.45478 15.5534 9.94207C16.218 10.4294 16.7231 11.1028 17.005 11.8772C17.3829 12.9156 17.3329 14.0616 16.8659 15.0632C16.3988 16.0647 15.5531 16.8397 14.5147 17.2176Z" fill="#CECBDE"/>
<path d="M11.3794 8.60383C10.4501 8.94206 9.64199 9.54825 9.05724 10.3457C8.47249 11.1432 8.13736 12.0962 8.09423 13.0842C8.05109 14.0722 8.30189 15.0507 8.81491 15.8962C9.32793 16.7416 10.0801 17.4159 10.9764 17.8338C11.8726 18.2518 12.8727 18.3945 13.8501 18.2441C14.8275 18.0937 15.7383 17.6568 16.4674 16.9887C17.1965 16.3206 17.7111 15.4513 17.9462 14.4907C18.1812 13.5302 18.1262 12.5215 17.7879 11.5922C17.3332 10.347 16.4031 9.33296 15.2016 8.77271C14.0002 8.21246 12.6255 8.15173 11.3794 8.60383ZM14.2295 16.4346C13.61 16.6601 12.9376 16.6968 12.2972 16.5401C11.6568 16.3834 11.0773 16.0403 10.6319 15.5543C10.1865 15.0682 9.89522 14.461 9.79493 13.8094C9.69464 13.1578 9.78982 12.4911 10.0684 11.8936C10.3471 11.2961 10.7966 10.7946 11.3602 10.4526C11.9238 10.1106 12.5762 9.94338 13.2349 9.97214C13.8935 10.0009 14.5288 10.2243 15.0605 10.6141C15.5922 11.004 15.9963 11.5427 16.2218 12.1622C16.5241 12.993 16.4841 13.9098 16.1105 14.711C15.7369 15.5122 15.0603 16.1322 14.2295 16.4346ZM21.7803 10.3785C21.7329 10.2362 21.6816 10.0952 21.6264 9.95568L22.4227 7.59955C22.4644 7.47588 22.4765 7.34415 22.458 7.21495C22.4394 7.08576 22.3908 6.96273 22.3161 6.85576C21.7487 6.04325 21.0761 5.30957 20.3159 4.67391C20.2163 4.59078 20.0987 4.53205 19.9724 4.50237C19.8462 4.4727 19.7147 4.47291 19.5885 4.50299L17.1727 5.08965C17.039 5.023 16.9055 4.96074 16.7721 4.90287L15.6508 2.67493C15.5926 2.55889 15.5081 2.45806 15.4041 2.38046C15.3 2.30286 15.1792 2.25066 15.0514 2.228C14.076 2.05454 13.0818 2.01156 12.095 2.10018C11.965 2.11165 11.8395 2.1535 11.7286 2.22235C11.6178 2.2912 11.5246 2.38513 11.4567 2.49658L10.1657 4.61149C10.0248 4.66279 9.8838 4.7141 9.74285 4.7654L7.38779 3.97199C7.26412 3.93028 7.13238 3.9182 7.00319 3.93673C6.874 3.95525 6.75096 4.00386 6.644 4.07865C5.83149 4.64599 5.09781 5.31859 4.46215 6.07884C4.37902 6.17841 4.32028 6.29601 4.29061 6.42227C4.26094 6.54854 4.26115 6.67999 4.29123 6.80616L4.87931 9.22596C4.8129 9.36024 4.75064 9.49376 4.69254 9.62649L2.4621 10.7409C2.34606 10.7991 2.24523 10.8836 2.16763 10.9877C2.09004 11.0918 2.03783 11.2125 2.01517 11.3404C1.84187 12.3159 1.79856 13.3102 1.88637 14.2971C1.898 14.4271 1.94002 14.5526 2.00905 14.6634C2.07807 14.7743 2.17217 14.8673 2.28375 14.9351L4.39866 16.226C4.44997 16.367 4.50127 16.508 4.55257 16.6489L3.75916 19.004C3.71745 19.1276 3.70537 19.2594 3.7239 19.3886C3.74242 19.5178 3.79103 19.6408 3.86582 19.7478C4.43316 20.5603 5.10576 21.294 5.86601 21.9296C5.96558 22.0127 6.08318 22.0715 6.20945 22.1012C6.33571 22.1308 6.46716 22.1306 6.59333 22.1005L9.00921 21.5139C9.1435 21.5803 9.27701 21.6425 9.40975 21.7006L10.5281 23.9297C10.5863 24.0457 10.6708 24.1465 10.7749 24.2241C10.8789 24.3017 10.9997 24.3539 11.1275 24.3766C12.1031 24.5499 13.0973 24.5932 14.0843 24.5054C14.2143 24.4938 14.3398 24.4517 14.4506 24.3827C14.5614 24.3137 14.6545 24.2196 14.7223 24.108L16.0132 21.9931C16.1556 21.9457 16.2966 21.8944 16.4361 21.8392L18.7922 22.6355C18.9159 22.6773 19.0476 22.6893 19.1768 22.6708C19.306 22.6523 19.429 22.6037 19.536 22.5289C20.3488 21.9619 21.0825 21.2893 21.7179 20.5287C21.801 20.4291 21.8597 20.3115 21.8894 20.1853C21.9191 20.059 21.9189 19.9275 21.8888 19.8014L21.3021 17.3855C21.3688 17.2519 21.431 17.1183 21.4889 16.985L23.7168 15.8637C23.8329 15.8055 23.9337 15.721 24.0113 15.6169C24.0889 15.5128 24.1411 15.3921 24.1638 15.2642C24.3371 14.2887 24.3804 13.2944 24.2926 12.3075C24.2809 12.1775 24.2389 12.052 24.1699 11.9412C24.1009 11.8303 24.0068 11.7373 23.8952 11.6695L21.7803 10.3785ZM19.9727 10.3159C20.0924 10.5928 20.1956 10.8765 20.282 11.1655C20.3408 11.3635 20.4711 11.5326 20.6475 11.6399L22.6682 12.8699C22.6932 13.4344 22.6679 14.0001 22.5928 14.5601L20.4718 15.6159C20.2869 15.7074 20.1426 15.8642 20.0666 16.056C19.9554 16.3365 19.8277 16.6102 19.6844 16.8758C19.5863 17.0572 19.5589 17.2686 19.6077 17.469L20.1664 19.7687C19.7858 20.1863 19.3687 20.5693 18.9201 20.9129L16.6781 20.1559C16.4987 20.0955 16.3041 20.0979 16.1263 20.1628L16.0793 20.1799C15.8024 20.2995 15.5187 20.4028 15.2297 20.4891C15.032 20.5485 14.8631 20.6787 14.7553 20.8547L13.5208 22.8781C12.9563 22.9031 12.3906 22.8778 11.8306 22.8027L10.7759 20.6846C10.6844 20.4998 10.5276 20.3554 10.3358 20.2795C10.0553 20.1682 9.78156 20.0405 9.51601 19.8972C9.33457 19.7991 9.12318 19.7718 8.92275 19.8205L6.62273 20.3783C6.20506 19.9977 5.82214 19.5806 5.4785 19.132L6.23546 16.8899C6.3016 16.6943 6.29272 16.481 6.21054 16.2916C6.09091 16.0146 5.98765 15.7309 5.9013 15.4419C5.84245 15.2439 5.71218 15.0749 5.53574 14.9675L3.51367 13.7336C3.48869 13.1691 3.51393 12.6035 3.58908 12.0434L5.70713 10.9887C5.892 10.8972 6.03636 10.7404 6.11229 10.5486C6.22358 10.2681 6.35122 9.99439 6.49455 9.72884C6.59321 9.5471 6.62078 9.33517 6.57189 9.13424L6.01348 6.83556C6.3941 6.41789 6.81119 6.03496 7.25979 5.69133L9.50181 6.44829C9.69747 6.51443 9.91073 6.50555 10.1002 6.42337C10.3771 6.30374 10.6608 6.20048 10.9499 6.11413C11.1476 6.05474 11.3164 5.9246 11.4243 5.74857L12.6581 3.7265C13.2227 3.70152 13.7883 3.72676 14.3484 3.80191L15.403 5.91996C15.4945 6.10483 15.6514 6.24919 15.8432 6.32512C16.1236 6.43641 16.3974 6.56405 16.6629 6.70738C16.8444 6.8055 17.0558 6.83283 17.2562 6.7841L19.5558 6.22533C19.9735 6.60596 20.3564 7.02304 20.7001 7.47164L19.9431 9.71366C19.8763 9.91103 19.8858 10.1263 19.9698 10.317L19.9727 10.3159Z" fill="#706D7E"/>
</svg>
