<svg width="34" height="20" viewBox="0 0 34 20" fill="none" xmlns="http://www.w3.org/2000/svg">
<rect x="0.5" y="0.5" width="33" height="19" rx="5.5" stroke="#9E9BAD"/>
<path d="M8.28025 15.091C7.68225 15.091 7.14492 14.987 6.66825 14.779C6.20025 14.5623 5.83192 14.2677 5.56325 13.895C5.29458 13.5137 5.15592 13.076 5.14725 12.582H6.40825C6.45158 13.0067 6.62492 13.3663 6.92825 13.661C7.24025 13.947 7.69092 14.09 8.28025 14.09C8.84358 14.09 9.28558 13.9513 9.60625 13.674C9.93558 13.388 10.1003 13.024 10.1003 12.582C10.1003 12.2353 10.0049 11.9537 9.81425 11.737C9.62358 11.5203 9.38525 11.3557 9.09925 11.243C8.81325 11.1303 8.42758 11.009 7.94225 10.879C7.34425 10.723 6.86325 10.567 6.49925 10.411C6.14392 10.255 5.83625 10.0123 5.57625 9.683C5.32492 9.345 5.19925 8.89433 5.19925 8.331C5.19925 7.837 5.32492 7.39933 5.57625 7.018C5.82758 6.63667 6.17858 6.342 6.62925 6.134C7.08858 5.926 7.61292 5.822 8.20225 5.822C9.05158 5.822 9.74492 6.03433 10.2823 6.459C10.8283 6.88367 11.1359 7.447 11.2053 8.149H9.90525C9.86192 7.80233 9.67992 7.499 9.35925 7.239C9.03858 6.97033 8.61392 6.836 8.08525 6.836C7.59125 6.836 7.18825 6.966 6.87625 7.226C6.56425 7.47733 6.40825 7.83267 6.40825 8.292C6.40825 8.62133 6.49925 8.89 6.68125 9.098C6.87192 9.306 7.10158 9.46633 7.37025 9.579C7.64758 9.683 8.03325 9.80433 8.52725 9.943C9.12525 10.1077 9.60625 10.2723 9.97025 10.437C10.3343 10.593 10.6463 10.84 10.9062 11.178C11.1663 11.5073 11.2963 11.958 11.2963 12.53C11.2963 12.972 11.1793 13.388 10.9453 13.778C10.7113 14.168 10.3646 14.4843 9.90525 14.727C9.44592 14.9697 8.90425 15.091 8.28025 15.091ZM14.1941 5.939V11.672C14.1941 12.478 14.3891 13.076 14.7791 13.466C15.1778 13.856 15.7281 14.051 16.4301 14.051C17.1235 14.051 17.6651 13.856 18.0551 13.466C18.4538 13.076 18.6531 12.478 18.6531 11.672V5.939H19.8361V11.659C19.8361 12.413 19.6845 13.05 19.3811 13.57C19.0778 14.0813 18.6661 14.4627 18.1461 14.714C17.6348 14.9653 17.0585 15.091 16.4171 15.091C15.7758 15.091 15.1951 14.9653 14.6751 14.714C14.1638 14.4627 13.7565 14.0813 13.4531 13.57C13.1585 13.05 13.0111 12.413 13.0111 11.659V5.939H14.1941ZM29.2976 5.939L25.8786 15H24.5136L21.0946 5.939H22.3556L25.2026 13.752L28.0496 5.939H29.2976Z" fill="#9E9BAD"/>
</svg>
