<svg width="27" height="27" viewBox="0 0 27 27" fill="none" xmlns="http://www.w3.org/2000/svg">
<path opacity="0.2" d="M17.5749 13.4434C17.8568 14.2178 17.9027 15.0583 17.7068 15.8588C17.5109 16.6593 17.0821 17.3837 16.4745 17.9404C15.8669 18.4972 15.1079 18.8613 14.2934 18.9866C13.4789 19.112 12.6455 18.993 11.8986 18.6447C11.1518 18.2965 10.5249 17.7345 10.0974 17.03C9.66991 16.3255 9.46091 15.51 9.49685 14.6867C9.5328 13.8634 9.81208 13.0692 10.2994 12.4047C10.7867 11.7401 11.4601 11.2349 12.2345 10.9531C13.2729 10.5751 14.4189 10.6251 15.4205 11.0922C16.422 11.5592 17.197 12.4049 17.5749 13.4434ZM4.25975 8.53474C3.64024 8.76022 3.1015 9.16435 2.71167 9.69601C2.32184 10.2277 2.09841 10.863 2.06966 11.5216C2.0409 12.1803 2.2081 12.8327 2.55011 13.3963C2.89212 13.9599 3.39359 14.4095 3.99109 14.6881C4.58859 14.9667 5.2553 15.0619 5.9069 14.9616C6.55849 14.8613 7.16572 14.57 7.65179 14.1246C8.13785 13.6792 8.48093 13.0997 8.63763 12.4593C8.79432 11.819 8.75761 11.1465 8.53213 10.527C8.22976 9.69624 7.60977 9.01964 6.80855 8.64602C6.00732 8.2724 5.09049 8.23237 4.25975 8.53474ZM16.789 3.97447C16.1695 4.19995 15.6307 4.60408 15.2409 5.13574C14.8511 5.66741 14.6277 6.30274 14.5989 6.96138C14.5701 7.62002 14.7373 8.2724 15.0793 8.83602C15.4214 9.39964 15.9228 9.84918 16.5203 10.1278C17.1178 10.4064 17.7845 10.5016 18.4361 10.4013C19.0877 10.301 19.695 10.0098 20.181 9.56437C20.6671 9.11897 21.0102 8.53944 21.1669 7.89906C21.3236 7.25869 21.2868 6.58622 21.0614 5.96671C20.759 5.13597 20.139 4.45937 19.3378 4.08575C18.5366 3.71213 17.6197 3.6721 16.789 3.97447Z" fill="#CECBDE"/>
<path d="M25.3205 11.3337C25.2606 11.4253 25.1834 11.5043 25.093 11.5661C25.0027 11.6279 24.9011 11.6712 24.794 11.6937C24.6869 11.7163 24.5764 11.7174 24.4689 11.6973C24.3613 11.6771 24.2588 11.6359 24.1671 11.5761C23.4642 11.1134 22.6625 10.8223 21.8266 10.7261C20.9906 10.6299 20.1437 10.7313 19.3541 11.0222C19.1464 11.0978 18.9172 11.0878 18.7169 10.9944C18.5166 10.901 18.3616 10.7318 18.286 10.5241C18.2104 10.3164 18.2204 10.0872 18.3138 9.88692C18.4072 9.68661 18.5764 9.53161 18.7841 9.45602C19.2234 9.29606 19.6091 9.01609 19.8973 8.64792C20.1856 8.27974 20.3648 7.83812 20.4146 7.3732C20.4644 6.90829 20.3828 6.43872 20.1791 6.01784C19.9755 5.59696 19.6578 5.24163 19.2623 4.99222C18.8668 4.74281 18.4093 4.60932 17.9417 4.6069C17.4742 4.60448 17.0153 4.73323 16.6172 4.97853C16.2192 5.22384 15.8979 5.57585 15.6899 5.9946C15.4818 6.41335 15.3954 6.88205 15.4404 7.34746C15.451 7.45643 15.4399 7.56642 15.408 7.67114C15.376 7.77586 15.3238 7.87327 15.2542 7.95779C15.1846 8.04231 15.099 8.11229 15.0023 8.16374C14.9057 8.21519 14.7999 8.24711 14.6909 8.25766C14.5819 8.26821 14.4719 8.25719 14.3672 8.22523C14.2625 8.19327 14.1651 8.141 14.0806 8.0714C13.996 8.00181 13.9261 7.91624 13.8746 7.81959C13.8232 7.72295 13.7912 7.61712 13.7807 7.50814C13.7184 6.86271 13.8077 6.21166 14.0413 5.60678C14.2749 5.00191 14.6465 4.45992 15.1265 4.02392C15.6064 3.58793 16.1815 3.26997 16.806 3.09535C17.4305 2.92072 18.0871 2.89425 18.7236 3.01805C19.3601 3.14184 19.9589 3.41248 20.4724 3.80842C20.9859 4.20437 21.3999 4.7147 21.6815 5.2988C21.963 5.8829 22.1044 6.52466 22.0943 7.173C22.0842 7.82135 21.9229 8.45839 21.6233 9.03343C22.8559 9.10691 24.0478 9.50161 25.0806 10.1783C25.1723 10.2383 25.2513 10.3159 25.313 10.4065C25.3747 10.497 25.418 10.5989 25.4402 10.7062C25.4625 10.8136 25.4634 10.9242 25.4429 11.0319C25.4223 11.1396 25.3807 11.2421 25.3205 11.3337ZM22.2411 19.283C22.3282 19.3522 22.4005 19.4382 22.4539 19.5359C22.5072 19.6335 22.5405 19.7409 22.5516 19.8516C22.5628 19.9623 22.5517 20.0742 22.519 20.1805C22.4862 20.2869 22.4325 20.3856 22.361 20.4708C22.2895 20.5561 22.2016 20.6262 22.1026 20.6769C22.0036 20.7277 21.8954 20.7581 21.7844 20.7664C21.6734 20.7746 21.5619 20.7606 21.4564 20.725C21.351 20.6895 21.2537 20.6332 21.1704 20.5595C20.3731 19.904 19.4187 19.4677 18.4013 19.2935C17.384 19.1194 16.3388 19.2135 15.3689 19.5665C14.399 19.9195 13.5379 20.5193 12.8705 21.3066C12.2031 22.0939 11.7524 23.0417 11.563 24.0563C11.5481 24.1677 11.5108 24.2749 11.4534 24.3715C11.396 24.4682 11.3196 24.5522 11.2289 24.6185C11.1382 24.6848 11.035 24.7322 10.9255 24.7576C10.816 24.783 10.7026 24.786 10.5919 24.7664C10.4812 24.7469 10.3756 24.7051 10.2815 24.6437C10.1874 24.5823 10.1067 24.5024 10.0442 24.409C9.98176 24.3155 9.93884 24.2104 9.91806 24.1C9.89727 23.9895 9.89903 23.876 9.92325 23.7663C10.2077 22.1855 10.9916 20.7377 12.1599 19.6355C11.1628 19.3223 10.2889 18.7045 9.66104 17.8689C9.03319 17.0333 8.68298 16.022 8.65962 14.9771C8.63626 13.9322 8.94094 12.9062 9.53082 12.0434C10.1207 11.1806 10.9661 10.5243 11.9483 10.1669C12.9304 9.80939 13.9999 9.76869 15.0064 10.0505C16.0128 10.3322 16.9057 10.9223 17.5595 11.7378C18.2132 12.5532 18.595 13.5531 18.6512 14.5967C18.7073 15.6404 18.435 16.6754 17.8725 17.5563C19.4759 17.6497 21.0071 18.2549 22.2411 19.283ZM14.7996 18.0008C15.4191 17.7753 15.9578 17.3712 16.3477 16.8395C16.7375 16.3078 16.9609 15.6725 16.9897 15.0139C17.0184 14.3552 16.8512 13.7028 16.5092 13.1392C16.1672 12.5756 15.6657 12.1261 15.0682 11.8474C14.4707 11.5688 13.804 11.4736 13.1524 11.5739C12.5008 11.6742 11.8936 11.9655 11.4075 12.4109C10.9215 12.8563 10.5784 13.4358 10.4217 14.0762C10.265 14.7166 10.3017 15.389 10.5272 16.0085C10.8296 16.8393 11.4496 17.5159 12.2508 17.8895C13.052 18.2631 13.9688 18.3031 14.7996 18.0008ZM7.32292 14.5143C7.24733 14.3067 7.09233 14.1375 6.89203 14.0441C6.69172 13.9507 6.46251 13.9407 6.25483 14.0163C5.81544 14.1762 5.34002 14.2096 4.88256 14.1129C4.42511 14.0161 4.00397 13.793 3.66697 13.4688C3.32997 13.1447 3.09062 12.7326 2.97611 12.2792C2.8616 11.8259 2.87652 11.3495 3.01918 10.9043C3.16183 10.459 3.4265 10.0626 3.78312 9.76021C4.13975 9.45781 4.57403 9.26148 5.03664 9.19353C5.49925 9.12557 5.97164 9.18871 6.40017 9.37578C6.82869 9.56284 7.19617 9.86633 7.46085 10.2518C7.586 10.4341 7.77845 10.5592 7.99584 10.5996C8.21324 10.64 8.43779 10.5924 8.62009 10.4672C8.80238 10.3421 8.9275 10.1497 8.96791 9.93226C9.00832 9.71486 8.96071 9.49031 8.83556 9.30802C8.46838 8.77357 7.98153 8.3322 7.41375 8.01902C6.84597 7.70584 6.21294 7.52949 5.56502 7.50401C4.91709 7.47853 4.27216 7.60463 3.68155 7.87226C3.09093 8.13989 2.57093 8.54167 2.16291 9.04563C1.7549 9.5496 1.47014 10.1418 1.33129 10.7752C1.19243 11.4086 1.20332 12.0656 1.36309 12.6941C1.52285 13.3225 1.82708 13.905 2.25157 14.3952C2.67606 14.8853 3.20909 15.2697 3.80825 15.5176C2.91248 16.3662 2.25416 17.4343 1.8986 18.6159C1.83434 18.8274 1.85674 19.0559 1.96088 19.2509C2.06503 19.4459 2.24238 19.5916 2.45393 19.6559C2.66548 19.7201 2.8939 19.6977 3.08893 19.5936C3.28396 19.4894 3.42964 19.3121 3.4939 19.1005C3.73498 18.2943 4.16198 17.556 4.74052 16.9449C5.31907 16.3339 6.03301 15.8672 6.82486 15.5824C7.03255 15.5069 7.2017 15.3519 7.2951 15.1515C7.38851 14.9512 7.39851 14.722 7.32292 14.5143Z" fill="#706D7E"/>
</svg>
